<svg xmlns="http://www.w3.org/2000/svg" viewBox="0 0 25.108 16.183">
  <g id="_001-ticket" data-name="001-ticket" transform="translate(0 -91)">
    <path id="Trazado_27322" data-name="Trazado 27322" d="M274.162,215.385l-.479-.971-.479.971a.736.736,0,0,1-.554.4l-1.072.156.776.756a.736.736,0,0,1,.212.651l-.183,1.068.959-.5a.735.735,0,0,1,.685,0l.959.5-.183-1.068a.736.736,0,0,1,.212-.651l.776-.756-1.072-.156A.736.736,0,0,1,274.162,215.385Z" transform="translate(-258.26 -117.362)"></path>
    <path id="Trazado_27323" data-name="Trazado 27323" d="M24.373,93.452a1.718,1.718,0,0,1-1.716-1.716A.736.736,0,0,0,21.921,91H7.846v1.528a.736.736,0,1,1-1.471,0V91H3.188a.736.736,0,0,0-.736.736A1.718,1.718,0,0,1,.736,93.452.736.736,0,0,0,0,94.188V104a.736.736,0,0,0,.736.736,1.718,1.718,0,0,1,1.716,1.716.736.736,0,0,0,.736.736H6.375v-1.528a.736.736,0,0,1,1.471,0v1.528H21.921a.736.736,0,0,0,.736-.736,1.718,1.718,0,0,1,1.716-1.716.736.736,0,0,0,.736-.736V94.188A.736.736,0,0,0,24.373,93.452Zm-16.526,8.99a.736.736,0,1,1-1.471,0V100.7a.736.736,0,1,1,1.471,0Zm0-4.957a.736.736,0,1,1-1.471,0V95.741a.736.736,0,0,1,1.471,0Zm11.776,1.11-1.566,1.526.37,2.155a.736.736,0,0,1-1.067.775l-1.936-1.018-1.936,1.018a.736.736,0,0,1-1.067-.776l.37-2.155-1.566-1.526a.736.736,0,0,1,.408-1.255l2.164-.314.968-1.961a.736.736,0,0,1,1.319,0l.968,1.961,2.164.314a.736.736,0,0,1,.408,1.255Z"></path>
  </g>
</svg>