<svg xmlns="http://www.w3.org/2000/svg" viewBox="0 0 30.324 28.961" fill="#333333">
  <g id="_x33_43" transform="translate(-0.694 -1.248)">
    <path id="Trazado_27267" data-name="Trazado 27267" d="M11.282,28.735A10.568,10.568,0,1,0,1.351,14.516a10.591,10.591,0,0,0,9.931,14.219ZM5.553,15.958A5.62,5.62,0,0,1,9.8,12.348a1.236,1.236,0,0,1,.468,2.427,3.162,3.162,0,0,0-2.4,2.033,3.194,3.194,0,0,0,.1,2.452,1.235,1.235,0,0,1-2.243,1.035,5.689,5.689,0,0,1-.173-4.337Z" transform="translate(0 1.474)"></path>
    <path id="Trazado_27268" data-name="Trazado 27268" d="M28.6,9.9l-2.317-.85L25,7.353a7.866,7.866,0,0,0-5.175-5.8,4.786,4.786,0,0,0-6.21,2.994l-.173.528-.8-.294A3,3,0,0,0,8.786,6.564l-.259.69a12.373,12.373,0,0,1,9.635,3.561l.259-.715a2.991,2.991,0,0,0-.1-2.3,2.948,2.948,0,0,0-1.688-1.552l-.876-.322.2-.6A2.348,2.348,0,0,1,19.062,3.89a5.44,5.44,0,0,1,3.622,4.584c.012.049.012.1.025.136l-.382,1.035-1.959,1.478a.934.934,0,0,0,.234,1.614l2.316.85,1.491,1.971a.9.9,0,0,0,.739.357h.136a.915.915,0,0,0,.727-.6L26.861,13,28.833,11.5a.9.9,0,0,0,.357-.862A.96.96,0,0,0,28.6,9.9Z" transform="translate(1.818)"></path>
  </g>
</svg>