<svg xmlns="http://www.w3.org/2000/svg" width="25.108" height="18.413" viewBox="0 0 25.108 18.413">
  <g id="Layer_2" data-name="Layer 2" transform="translate(-1 -5)">
    <path id="Trazado_27324" data-name="Trazado 27324" d="M24.907,11.022a.619.619,0,0,0,.527-.586V7.205A1.205,1.205,0,0,0,24.229,6H3.205A1.205,1.205,0,0,0,2,7.205v3.231a.619.619,0,0,0,.527.619,3.348,3.348,0,0,1,0,6.637A.619.619,0,0,0,2,18.3v3.231a1.205,1.205,0,0,0,1.205,1.205H24.229a1.205,1.205,0,0,0,1.205-1.205V18.3a.619.619,0,0,0-.527-.619,3.348,3.348,0,0,1,0-6.637ZM13.717,18.5a.837.837,0,1,1,.837-.837A.837.837,0,0,1,13.717,18.5Zm0-3.239a.833.833,0,1,0,0-.008Zm0-3.348a.833.833,0,1,0,0-.008Z" transform="translate(-0.163 -0.163)"></path>
    <path id="Trazado_27325" data-name="Trazado 27325" d="M24.066,23.413H3.042A2.042,2.042,0,0,1,1,21.371V18.14a1.456,1.456,0,0,1,1.23-1.423A2.547,2.547,0,0,0,2.222,11.7,1.448,1.448,0,0,1,1,10.273V7.042A2.042,2.042,0,0,1,3.042,5H24.066a2.042,2.042,0,0,1,2.042,2.042v3.231a1.448,1.448,0,0,1-1.23,1.423,2.547,2.547,0,0,0,.008,5.022,1.456,1.456,0,0,1,1.222,1.423v3.231A2.042,2.042,0,0,1,24.066,23.413ZM2.674,18.324v3.055a.368.368,0,0,0,.368.368H24.066a.368.368,0,0,0,.368-.368V18.324a4.185,4.185,0,0,1,0-8.227V7.042a.368.368,0,0,0-.368-.368H3.042a.368.368,0,0,0-.368.368V10.1a4.185,4.185,0,0,1,0,8.227Z" transform="translate(0 0)"></path>
  </g>
</svg>