<svg id="_002-roulette" data-name="002-roulette" xmlns="http://www.w3.org/2000/svg" width="25.888" height="25.888" viewBox="0 0 25.888 25.888" fill="#ff0">
  <path id="Trazado_27279" data-name="Trazado 27279" d="M426.631,142.391a9.523,9.523,0,0,1,.9,3.366h3.376a12.874,12.874,0,0,0-1.348-5.058Z" transform="translate(-405.022 -133.573)"></path>
  <path id="Trazado_27280" data-name="Trazado 27280" d="M47.091,47.051A9.677,9.677,0,0,1,49.544,44.6l-1.692-2.93a13.132,13.132,0,0,0-3.569,3.506Z" transform="translate(-42.04 -39.561)"></path>
  <path id="Trazado_27281" data-name="Trazado 27281" d="M47.065,365.42a9.677,9.677,0,0,1-2.463-2.463l-2.93,1.692a13.138,13.138,0,0,0,3.7,3.7Z" transform="translate(-39.561 -344.573)"></path>
  <path id="Trazado_27282" data-name="Trazado 27282" d="M365.42,362.958a9.675,9.675,0,0,1-2.463,2.463l1.692,2.93a13.138,13.138,0,0,0,3.7-3.7Z" transform="translate(-344.573 -344.574)"></path>
  <path id="Trazado_27283" data-name="Trazado 27283" d="M4.279,273.919a9.524,9.524,0,0,1-.9-3.366H0a12.874,12.874,0,0,0,1.348,5.058Z" transform="translate(0 -256.849)"></path>
  <path id="Trazado_27284" data-name="Trazado 27284" d="M273.919,426.63a9.524,9.524,0,0,1-3.366.9v3.376a12.874,12.874,0,0,0,5.058-1.348Z" transform="translate(-256.849 -405.021)"></path>
  <path id="Trazado_27285" data-name="Trazado 27285" d="M427.534,270.552a9.525,9.525,0,0,1-.9,3.366l2.93,1.692a12.875,12.875,0,0,0,1.348-5.058h-3.376Z" transform="translate(-405.022 -256.848)"></path>
  <path id="Trazado_27286" data-name="Trazado 27286" d="M145.757,427.534a9.525,9.525,0,0,1-3.366-.9l-1.692,2.93a12.876,12.876,0,0,0,5.058,1.348Z" transform="translate(-133.572 -405.022)"></path>
  <path id="Trazado_27287" data-name="Trazado 27287" d="M270.553,3.376a9.526,9.526,0,0,1,3.366.9l1.692-2.93A12.876,12.876,0,0,0,270.553,0Z" transform="translate(-256.849 0)"></path>
  <path id="Trazado_27288" data-name="Trazado 27288" d="M362.957,44.6a9.675,9.675,0,0,1,2.463,2.463l2.93-1.692a13.138,13.138,0,0,0-3.7-3.7Z" transform="translate(-344.573 -39.561)"></path>
  <path id="Trazado_27289" data-name="Trazado 27289" d="M142.391,4.279a9.526,9.526,0,0,1,3.366-.9V0A12.874,12.874,0,0,0,140.7,1.348Z" transform="translate(-133.573 0)"></path>
  <path id="Trazado_27290" data-name="Trazado 27290" d="M3.376,141.853a9.526,9.526,0,0,1,.909-3.379l-2.829-1.887A12.868,12.868,0,0,0,0,141.853Z" transform="translate(0 -129.669)"></path>
  <path id="Trazado_27291" data-name="Trazado 27291" d="M104.134,96.055a8.079,8.079,0,1,0,8.079,8.079,8.088,8.088,0,0,0-8.079-8.079Zm3.02,8.079a3,3,0,0,1-.415,1.53l1.762,1.762a.76.76,0,1,1-1.074,1.074l-1.762-1.762a3.025,3.025,0,0,1-3.06,0l-1.762,1.762a.76.76,0,1,1-1.074-1.074l1.762-1.762a3.025,3.025,0,0,1,0-3.06l-1.762-1.762a.76.76,0,1,1,1.074-1.074l1.762,1.762a3.025,3.025,0,0,1,3.06,0l1.762-1.762a.76.76,0,0,1,1.074,1.074l-1.762,1.762A3,3,0,0,1,107.153,104.134Z" transform="translate(-91.19 -91.19)"></path>
  <path id="Trazado_27292" data-name="Trazado 27292" d="M227.438,225.951a1.5,1.5,0,1,0,1.061.439A1.5,1.5,0,0,0,227.438,225.951Z" transform="translate(-214.494 -214.506)"></path>
</svg>