<svg xmlns="http://www.w3.org/2000/svg" width="30.13" height="30.13" viewBox="0 0 30.13 30.13">
  <g id="Grupo_4" data-name="Grupo 4" transform="translate(-30.03 -371.87)">
    <path id="Vector" d="M0,0H30.13V30.13H0Z" transform="translate(30.03 371.87)" fill="none"></path>
    <path id="Vector-2" data-name="Vector" d="M15.065,0V4.377A1.367,1.367,0,0,1,13.81,5.826H1.255A1.367,1.367,0,0,1,0,4.377V0A3.45,3.45,0,0,0,.552.029H14.5A3.691,3.691,0,0,0,15.065,0Z" transform="translate(37.562 393.663)"></path>
    <path id="Vector-3" data-name="Vector" d="M19.522,0H5.574C2.222,0,0,1.67,0,5.574v8.939c0,3.678,1.984,5.373,5.022,5.549a3.977,3.977,0,0,0,.552.025H19.522a4.255,4.255,0,0,0,.565-.025c3.026-.176,5.009-1.883,5.009-5.549V5.574C25.1,1.67,22.861,0,19.522,0ZM10.458,6.516a1.808,1.808,0,0,1,3.616,0v4.532a1.808,1.808,0,0,1-3.616,0ZM7.394,11.06a1.814,1.814,0,0,1-3.628,0V6.528a1.808,1.808,0,0,1,3.616,0V11.06Zm8.3,6.2H9.416a.942.942,0,0,1,0-1.883h6.277a.942.942,0,1,1,0,1.883Zm5.1-6.2a1.808,1.808,0,0,1-3.616,0V6.528a1.808,1.808,0,0,1,3.616,0Z" transform="translate(32.541 374.381)"></path>
  </g>
</svg>